{
  "accessors": [
    {
      "bufferView": 2,
      "componentType": 5126,
      "count": 6770,
      "max": [
        0.5313100218772888,
        0.7579630017280579,
        1.0
      ],
      "min": [
        -0.5313090085983276,
        -0.7579630017280579,
        -1.0
      ],
      "type": "VEC3"
    },
    {
      "bufferView": 2,
      "byteOffset": 81240,
      "componentType": 5126,
      "count": 6770,
      "max": [
        1.0,
        1.0,
        0.9984129071235657
      ],
      "min": [
        -1.0,
        -1.0,
        -0.9999823570251465
      ],
      "type": "VEC3"
    },
    {
      "bufferView": 3,
      "componentType": 5126,
      "count": 6770,
      "max": [
        1.0,
        0.9995710253715515,
        0.999455988407135,
        1.0
      ],
      "min": [
        -1.0,
        -0.9999819993972778,
        -0.9999930262565613,
        1.0
      ],
      "type": "VEC4"
    },
    {
      "bufferView": 1,
      "componentType": 5126,
      "count": 6770,
      "max": [
        0.9995139837265015,
        0.9969419836997986
      ],
      "min": [
        0.0004863379872404039,
        0.0004863379872404039
      ],
      "type": "VEC2"
    },
    {
      "bufferView": 0,
      "componentType": 5125,
      "count": 27912,
      "type": "SCALAR"
    },
    {
      "bufferView": 2,
      "byteOffset": 162480,
      "componentType": 5126,
      "count": 5642,
      "max": [
        0.5775579810142517,
        0.7293230295181274,
        0.9630339741706848
      ],
      "min": [
        -0.5775579810142517,
        -0.6217039823532104,
        -0.3690289855003357
      ],
      "type": "VEC3"
    },
    {
      "bufferView": 2,
      "byteOffset": 230184,
      "componentType": 5126,
      "count": 5642,
      "max": [
        1.0,
        1.0,
        1.0
      ],
      "min": [
        -1.0,
        -1.0,
        -1.0
      ],
      "type": "VEC3"
    },
    {
      "bufferView": 3,
      "byteOffset": 108320,
      "componentType": 5126,
      "count": 5642,
      "max": [
        1.0,
        1.0,
        1.0,
        1.0
      ],
      "min": [
        -1.0,
        -1.0,
        -1.0,
        -1.0
      ],
      "type": "VEC4"
    },
    {
      "bufferView": 1,
      "byteOffset": 54160,
      "componentType": 5126,
      "count": 5642,
      "max": [
        0.9967460036277771,
        0.9992799758911133
      ],
      "min": [
        0.0007200880208984017,
        0.0007200880208984017
      ],
      "type": "VEC2"
    },
    {
      "bufferView": 0,
      "byteOffset": 111648,
      "componentType": 5125,
      "count": 17520,
      "type": "SCALAR"
    }
  ],
  "asset": {
    "extras": {
      "author": "Lukas Bobor (https://sketchfab.com/LukasBobor)",
      "license": "CC-BY-4.0 (http://creativecommons.org/licenses/by/4.0/)",
      "source": "https://sketchfab.com/3d-models/drone-scout-hyperx-da388c84e442474fa5f464a2cc1f32b2",
      "title": "Drone Scout HyperX"
    },
    "generator": "Sketchfab-12.64.0",
    "version": "2.0"
  },
  "bufferViews": [
    {
      "buffer": 0,
      "byteLength": 181728,
      "name": "floatBufferViews",
      "target": 34963
    },
    {
      "buffer": 0,
      "byteLength": 99296,
      "byteOffset": 181728,
      "byteStride": 8,
      "name": "floatBufferViews",
      "target": 34962
    },
    {
      "buffer": 0,
      "byteLength": 297888,
      "byteOffset": 281024,
      "byteStride": 12,
      "name": "floatBufferViews",
      "target": 34962
    },
    {
      "buffer": 0,
      "byteLength": 198592,
      "byteOffset": 578912,
      "byteStride": 16,
      "name": "floatBufferViews",
      "target": 34962
    }
  ],
  "buffers": [
    {
      "byteLength": 777504,
      "uri": "scene.bin"
    }
  ],
  "images": [
    {
      "uri": "textures/Body_Back_baseColor.jpeg"
    },
    {
      "uri": "textures/Body_Back_metallicRoughness.png"
    },
    {
      "uri": "textures/Body_Back_emissive.jpeg"
    },
    {
      "uri": "textures/Body_Back_normal.jpeg"
    },
    {
      "uri": "textures/Body_Front_baseColor.png"
    },
    {
      "uri": "textures/Body_Front_metallicRoughness.png"
    },
    {
      "uri": "textures/Body_Front_emissive.png"
    },
    {
      "uri": "textures/Body_Front_normal.jpeg"
    }
  ],
  "materials": [
    {
      "doubleSided": true,
      "emissiveFactor": [
        1.0,
        1.0,
        1.0
      ],
      "emissiveTexture": {
        "index": 2
      },
      "name": "Body_Back",
      "normalTexture": {
        "index": 3
      },
      "occlusionTexture": {
        "index": 1
      },
      "pbrMetallicRoughness": {
        "baseColorTexture": {
          "index": 0
        },
        "metallicRoughnessTexture": {
          "index": 1
        }
      }
    },
    {
      "doubleSided": true,
      "emissiveFactor": [
        1.0,
        1.0,
        1.0
      ],
      "emissiveTexture": {
        "index": 6
      },
      "name": "Body_Front",
      "normalTexture": {
        "index": 7
      },
      "occlusionTexture": {
        "index": 5
      },
      "pbrMetallicRoughness": {
        "baseColorTexture": {
          "index": 4
        },
        "metallicRoughnessTexture": {
          "index": 5
        }
      }
    }
  ],
  "meshes": [
    {
      "name": "defaultMaterial",
      "primitives": [
        {
          "attributes": {
            "NORMAL": 1,
            "POSITION": 0,
            "TANGENT": 2,
            "TEXCOORD_0": 3
          },
          "indices": 4,
          "material": 1,
          "mode": 4
        }
      ]
    },
    {
      "name": "defaultMaterial",
      "primitives": [
        {
          "attributes": {
            "NORMAL": 6,
            "POSITION": 5,
            "TANGENT": 7,
            "TEXCOORD_0": 8
          },
          "indices": 9,
          "material": 0,
          "mode": 4
        }
      ]
    }
  ],
  "nodes": [
    {
      "children": [
        1
      ],
      "matrix": [
        1.0,
        0.0,
        0.0,
        0.0,
        0.0,
        2.220446049250313e-16,
        -1.0,
        0.0,
        0.0,
        1.0,
        2.220446049250313e-16,
        0.0,
        0.0,
        0.0,
        0.0,
        1.0
      ],
      "name": "Sketchfab_model"
    },
    {
      "children": [
        2,
        4
      ],
      "matrix": [
        1.0,
        0.0,
        0.0,
        0.0,
        0.0,
        -4.371139006309477e-08,
        0.999999999999999,
        0.0,
        0.0,
        -0.999999999999999,
        -4.371139006309477e-08,
        0.0,
        0.0,
        0.0,
        0.0,
        1.0
      ],
      "name": "Collada visual scene group"
    },
    {
      "children": [
        3
      ],
      "name": "Body_Front"
    },
    {
      "mesh": 0,
      "name": "defaultMaterial"
    },
    {
      "children": [
        5
      ],
      "name": "Body_Back"
    },
    {
      "mesh": 1,
      "name": "defaultMaterial"
    }
  ],
  "samplers": [
    {
      "magFilter": 9729,
      "minFilter": 9987,
      "wrapS": 10497,
      "wrapT": 10497
    }
  ],
  "scene": 0,
  "scenes": [
    {
      "name": "Sketchfab_Scene",
      "nodes": [
        0
      ]
    }
  ],
  "textures": [
    {
      "sampler": 0,
      "source": 0
    },
    {
      "sampler": 0,
      "source": 1
    },
    {
      "sampler": 0,
      "source": 2
    },
    {
      "sampler": 0,
      "source": 3
    },
    {
      "sampler": 0,
      "source": 4
    },
    {
      "sampler": 0,
      "source": 5
    },
    {
      "sampler": 0,
      "source": 6
    },
    {
      "sampler": 0,
      "source": 7
    }
  ]
}
